{
	"asset":{
		"generator":"Khronos glTF Blender I/O v4.3.47",
		"version":"2.0"
	},
	"extensionsUsed":[
		"KHR_materials_emissive_strength"
	],
	"scene":0,
	"scenes":[
		{
			"name":"Scene",
			"nodes":[
				0,
				1,
				2,
				3,
				4,
				5,
				6,
				7,
				8,
				9,
				10
			]
		}
	],
	"nodes":[
		{
			"mesh":0,
			"name":"Circle"
		},
		{
			"mesh":1,
			"name":"icing"
		},
		{
			"mesh":2,
			"name":"Icosphere",
			"scale":[
				0.12775227427482605,
				0.12775227427482605,
				0.12775227427482605
			],
			"translation":[
				0,
				0.9118576049804688,
				0
			]
		},
		{
			"mesh":3,
			"name":"Circle.001",
			"rotation":[
				0,
				-0.13970592617988586,
				0,
				0.9901930689811707
			],
			"scale":[
				0.13020949065685272,
				0.13020949065685272,
				0.13020949065685272
			],
			"translation":[
				0.3303610384464264,
				0.5767337679862976,
				-0.989870011806488
			]
		},
		{
			"mesh":4,
			"name":"Circle.002",
			"rotation":[
				0,
				0.15971413254737854,
				0,
				0.9871633052825928
			],
			"scale":[
				0.13020949065685272,
				0.13020949065685272,
				0.13020949065685272
			],
			"translation":[
				-0.3232704699039459,
				0.5767337679862976,
				-0.989870011806488
			]
		},
		{
			"mesh":5,
			"name":"Circle.003"
		},
		{
			"mesh":6,
			"name":"Circle.004"
		},
		{
			"mesh":7,
			"name":"Cylinder",
			"scale":[
				0.056829970329999924,
				0.056829970329999924,
				0.056829970329999924
			],
			"translation":[
				0,
				1.2099028825759888,
				0
			]
		},
		{
			"mesh":8,
			"name":"Cylinder.001",
			"scale":[
				0.056829970329999924,
				0.056829970329999924,
				0.056829970329999924
			],
			"translation":[
				0,
				1.233614206314087,
				0
			]
		},
		{
			"mesh":9,
			"name":"Plane.014",
			"rotation":[
				0.3930886685848236,
				0.9135324358940125,
				-0.025696532800793648,
				0.10138773173093796
			],
			"scale":[
				0.029354747384786606,
				0.029354751110076904,
				0.029354751110076904
			],
			"translation":[
				0.12744322419166565,
				1.8119736909866333,
				-0.2734733521938324
			]
		},
		{
			"mesh":10,
			"name":"Text",
			"rotation":[
				0,
				-0.7071067690849304,
				0.7071068286895752,
				1.461109633282831e-07
			],
			"scale":[
				0.47138258814811707,
				0.47138258814811707,
				0.47138258814811707
			],
			"translation":[
				3.666433334350586,
				-0.37928175926208496,
				0.50870680809021
			]
		}
	],
	"materials":[
		{
			"doubleSided":true,
			"name":"Material.004",
			"pbrMetallicRoughness":{
				"baseColorFactor":[
					0.8004899024963379,
					0.2580377459526062,
					0.10321108996868134,
					1
				],
				"metallicFactor":0,
				"roughnessFactor":0.5
			}
		},
		{
			"doubleSided":true,
			"name":"Material.005",
			"pbrMetallicRoughness":{
				"baseColorFactor":[
					0.9856544733047485,
					0.6215517520904541,
					0.28252509236335754,
					1
				],
				"metallicFactor":0,
				"roughnessFactor":0.5
			}
		},
		{
			"doubleSided":true,
			"name":"Material.003",
			"pbrMetallicRoughness":{
				"baseColorFactor":[
					0.8000785112380981,
					0.1007535457611084,
					0.07107903063297272,
					1
				],
				"metallicFactor":0,
				"roughnessFactor":0.5
			}
		},
		{
			"doubleSided":true,
			"name":"Material.001",
			"pbrMetallicRoughness":{
				"baseColorFactor":[
					0,
					0,
					0,
					1
				],
				"metallicFactor":0,
				"roughnessFactor":0.5
			}
		},
		{
			"doubleSided":true,
			"name":"Material.002",
			"pbrMetallicRoughness":{
				"metallicFactor":0,
				"roughnessFactor":0.5
			}
		},
		{
			"doubleSided":true,
			"name":"Material.007",
			"pbrMetallicRoughness":{
				"baseColorFactor":[
					0.03211604803800583,
					0.3626158833503723,
					0.800070583820343,
					1
				],
				"metallicFactor":0,
				"roughnessFactor":0.5
			}
		},
		{
			"doubleSided":true,
			"emissiveFactor":[
				1,
				0.4184778928756714,
				0
			],
			"extensions":{
				"KHR_materials_emissive_strength":{
					"emissiveStrength":5
				}
			},
			"name":"Material.006",
			"pbrMetallicRoughness":{
				"baseColorFactor":[
					0.800000011920929,
					0.800000011920929,
					0.800000011920929,
					1
				],
				"metallicFactor":0,
				"roughnessFactor":0.5
			}
		},
		{
			"doubleSided":true,
			"emissiveFactor":[
				1,
				1,
				1
			],
			"extensions":{
				"KHR_materials_emissive_strength":{
					"emissiveStrength":7
				}
			},
			"name":"Material",
			"pbrMetallicRoughness":{
				"baseColorFactor":[
					0.800000011920929,
					0.800000011920929,
					0.800000011920929,
					1
				],
				"metallicFactor":0,
				"roughnessFactor":0.5
			}
		}
	],
	"meshes":[
		{
			"name":"Circle",
			"primitives":[
				{
					"attributes":{
						"POSITION":0,
						"NORMAL":1,
						"TEXCOORD_0":2
					},
					"indices":3,
					"material":0
				}
			]
		},
		{
			"name":"Circle.001",
			"primitives":[
				{
					"attributes":{
						"POSITION":4,
						"NORMAL":5,
						"TEXCOORD_0":6
					},
					"indices":7,
					"material":1
				}
			]
		},
		{
			"name":"Icosphere",
			"primitives":[
				{
					"attributes":{
						"POSITION":8,
						"NORMAL":9,
						"TEXCOORD_0":10
					},
					"indices":11,
					"material":2
				}
			]
		},
		{
			"name":"Circle.003",
			"primitives":[
				{
					"attributes":{
						"POSITION":12,
						"NORMAL":13,
						"TEXCOORD_0":14
					},
					"indices":15,
					"material":3
				},
				{
					"attributes":{
						"POSITION":16,
						"NORMAL":17,
						"TEXCOORD_0":18
					},
					"indices":19,
					"material":4
				}
			]
		},
		{
			"name":"Circle.004",
			"primitives":[
				{
					"attributes":{
						"POSITION":20,
						"NORMAL":21,
						"TEXCOORD_0":22
					},
					"indices":15,
					"material":3
				},
				{
					"attributes":{
						"POSITION":23,
						"NORMAL":24,
						"TEXCOORD_0":25
					},
					"indices":19,
					"material":4
				}
			]
		},
		{
			"name":"Circle.005",
			"primitives":[
				{
					"attributes":{
						"POSITION":26,
						"NORMAL":27,
						"TEXCOORD_0":28
					},
					"indices":29,
					"material":2
				}
			]
		},
		{
			"name":"Circle.006",
			"primitives":[
				{
					"attributes":{
						"POSITION":30,
						"NORMAL":31,
						"TEXCOORD_0":32
					},
					"indices":33,
					"material":1
				}
			]
		},
		{
			"name":"Cylinder.001",
			"primitives":[
				{
					"attributes":{
						"POSITION":34,
						"NORMAL":35,
						"TEXCOORD_0":36
					},
					"indices":37,
					"material":5
				}
			]
		},
		{
			"name":"Cylinder.002",
			"primitives":[
				{
					"attributes":{
						"POSITION":38,
						"NORMAL":39,
						"TEXCOORD_0":40
					},
					"indices":41
				}
			]
		},
		{
			"name":"Plane",
			"primitives":[
				{
					"attributes":{
						"POSITION":42,
						"NORMAL":43,
						"TEXCOORD_0":44
					},
					"indices":45,
					"material":6
				}
			]
		},
		{
			"name":"Text",
			"primitives":[
				{
					"attributes":{
						"POSITION":46,
						"NORMAL":47,
						"TEXCOORD_0":48
					},
					"indices":49,
					"material":7
				}
			]
		}
	],
	"accessors":[
		{
			"bufferView":0,
			"componentType":5126,
			"count":2513,
			"max":[
				0.9935951828956604,
				0.8482546210289001,
				0.9935951828956604
			],
			"min":[
				-0.9935951828956604,
				0.0456705316901207,
				-0.9935951828956604
			],
			"type":"VEC3"
		},
		{
			"bufferView":1,
			"componentType":5126,
			"count":2513,
			"type":"VEC3"
		},
		{
			"bufferView":2,
			"componentType":5126,
			"count":2513,
			"type":"VEC2"
		},
		{
			"bufferView":3,
			"componentType":5123,
			"count":14688,
			"type":"SCALAR"
		},
		{
			"bufferView":4,
			"componentType":5126,
			"count":5977,
			"max":[
				1.0322186946868896,
				0.8877701163291931,
				1.0323323011398315
			],
			"min":[
				-1.0331428050994873,
				0.26386648416519165,
				-1.0318981409072876
			],
			"type":"VEC3"
		},
		{
			"bufferView":5,
			"componentType":5126,
			"count":5977,
			"type":"VEC3"
		},
		{
			"bufferView":6,
			"componentType":5126,
			"count":5977,
			"type":"VEC2"
		},
		{
			"bufferView":7,
			"componentType":5123,
			"count":34944,
			"type":"SCALAR"
		},
		{
			"bufferView":8,
			"componentType":5126,
			"count":592,
			"max":[
				6.643942832946777,
				1.0519542694091797,
				6.643942832946777
			],
			"min":[
				-6.6439433097839355,
				-0.9480466842651367,
				-6.643942832946777
			],
			"type":"VEC3"
		},
		{
			"bufferView":9,
			"componentType":5126,
			"count":592,
			"type":"VEC3"
		},
		{
			"bufferView":10,
			"componentType":5126,
			"count":592,
			"type":"VEC2"
		},
		{
			"bufferView":11,
			"componentType":5123,
			"count":1920,
			"type":"SCALAR"
		},
		{
			"bufferView":12,
			"componentType":5126,
			"count":16,
			"max":[
				0.9999999403953552,
				1,
				5.960464477539063e-08
			],
			"min":[
				-0.9999999403953552,
				-1,
				-5.960464477539063e-08
			],
			"type":"VEC3"
		},
		{
			"bufferView":13,
			"componentType":5126,
			"count":16,
			"type":"VEC3"
		},
		{
			"bufferView":14,
			"componentType":5126,
			"count":16,
			"type":"VEC2"
		},
		{
			"bufferView":15,
			"componentType":5123,
			"count":42,
			"type":"SCALAR"
		},
		{
			"bufferView":16,
			"componentType":5126,
			"count":32,
			"max":[
				0.5136786103248596,
				0.7070987224578857,
				-0.014942890964448452
			],
			"min":[
				-0.726323127746582,
				-0.7443721294403076,
				-0.026775788515806198
			],
			"type":"VEC3"
		},
		{
			"bufferView":17,
			"componentType":5126,
			"count":32,
			"type":"VEC3"
		},
		{
			"bufferView":18,
			"componentType":5126,
			"count":32,
			"type":"VEC2"
		},
		{
			"bufferView":19,
			"componentType":5123,
			"count":84,
			"type":"SCALAR"
		},
		{
			"bufferView":20,
			"componentType":5126,
			"count":16,
			"max":[
				0.9999999403953552,
				1,
				5.960464477539063e-08
			],
			"min":[
				-0.9999999403953552,
				-1,
				-5.960464477539063e-08
			],
			"type":"VEC3"
		},
		{
			"bufferView":21,
			"componentType":5126,
			"count":16,
			"type":"VEC3"
		},
		{
			"bufferView":22,
			"componentType":5126,
			"count":16,
			"type":"VEC2"
		},
		{
			"bufferView":23,
			"componentType":5126,
			"count":32,
			"max":[
				0.5136786103248596,
				0.7070987224578857,
				-0.014942890964448452
			],
			"min":[
				-0.726323127746582,
				-0.7443721294403076,
				-0.026775788515806198
			],
			"type":"VEC3"
		},
		{
			"bufferView":24,
			"componentType":5126,
			"count":32,
			"type":"VEC3"
		},
		{
			"bufferView":25,
			"componentType":5126,
			"count":32,
			"type":"VEC2"
		},
		{
			"bufferView":26,
			"componentType":5126,
			"count":166,
			"max":[
				0.14601455628871918,
				0.32300466299057007,
				-0.6960886716842651
			],
			"min":[
				-0.1495908945798874,
				0.2488231062889099,
				-0.9295734763145447
			],
			"type":"VEC3"
		},
		{
			"bufferView":27,
			"componentType":5126,
			"count":166,
			"type":"VEC3"
		},
		{
			"bufferView":28,
			"componentType":5126,
			"count":166,
			"type":"VEC2"
		},
		{
			"bufferView":29,
			"componentType":5123,
			"count":960,
			"type":"SCALAR"
		},
		{
			"bufferView":30,
			"componentType":5126,
			"count":2818,
			"max":[
				1.0876299142837524,
				0.11151440441608429,
				1.0876299142837524
			],
			"min":[
				-1.0876299142837524,
				-0.081777423620224,
				-1.0876299142837524
			],
			"type":"VEC3"
		},
		{
			"bufferView":31,
			"componentType":5126,
			"count":2818,
			"type":"VEC3"
		},
		{
			"bufferView":32,
			"componentType":5126,
			"count":2818,
			"type":"VEC2"
		},
		{
			"bufferView":33,
			"componentType":5123,
			"count":16896,
			"type":"SCALAR"
		},
		{
			"bufferView":34,
			"componentType":5126,
			"count":96,
			"max":[
				1.3433294296264648,
				7.893169403076172,
				1.3433294296264648
			],
			"min":[
				-1.3433294296264648,
				-7.893186569213867,
				-1.3433294296264648
			],
			"type":"VEC3"
		},
		{
			"bufferView":35,
			"componentType":5126,
			"count":96,
			"type":"VEC3"
		},
		{
			"bufferView":36,
			"componentType":5126,
			"count":96,
			"type":"VEC2"
		},
		{
			"bufferView":37,
			"componentType":5123,
			"count":180,
			"type":"SCALAR"
		},
		{
			"bufferView":38,
			"componentType":5126,
			"count":8,
			"max":[
				0.9207209348678589,
				7.099183082580566,
				0.9207209348678589
			],
			"min":[
				-0.9207209348678589,
				7.099183082580566,
				-0.9207209348678589
			],
			"type":"VEC3"
		},
		{
			"bufferView":39,
			"componentType":5126,
			"count":8,
			"type":"VEC3"
		},
		{
			"bufferView":40,
			"componentType":5126,
			"count":8,
			"type":"VEC2"
		},
		{
			"bufferView":41,
			"componentType":5123,
			"count":18,
			"type":"SCALAR"
		},
		{
			"bufferView":42,
			"componentType":5126,
			"count":450,
			"max":[
				23.60674285888672,
				22.563522338867188,
				5.336556434631348
			],
			"min":[
				-17.621816635131836,
				-26.070938110351562,
				-27.23589324951172
			],
			"type":"VEC3"
		},
		{
			"bufferView":43,
			"componentType":5126,
			"count":450,
			"type":"VEC3"
		},
		{
			"bufferView":44,
			"componentType":5126,
			"count":450,
			"type":"VEC2"
		},
		{
			"bufferView":45,
			"componentType":5123,
			"count":666,
			"type":"SCALAR"
		},
		{
			"bufferView":46,
			"componentType":5126,
			"count":1626,
			"max":[
				10.8307523727417,
				1.0607099533081055,
				-5.853301525115967
			],
			"min":[
				4.591352462768555,
				1.0607094764709473,
				-7.202056407928467
			],
			"type":"VEC3"
		},
		{
			"bufferView":47,
			"componentType":5126,
			"count":1626,
			"type":"VEC3"
		},
		{
			"bufferView":48,
			"componentType":5126,
			"count":1626,
			"type":"VEC2"
		},
		{
			"bufferView":49,
			"componentType":5123,
			"count":4254,
			"type":"SCALAR"
		}
	],
	"bufferViews":[
		{
			"buffer":0,
			"byteLength":30156,
			"byteOffset":0,
			"target":34962
		},
		{
			"buffer":0,
			"byteLength":30156,
			"byteOffset":30156,
			"target":34962
		},
		{
			"buffer":0,
			"byteLength":20104,
			"byteOffset":60312,
			"target":34962
		},
		{
			"buffer":0,
			"byteLength":29376,
			"byteOffset":80416,
			"target":34963
		},
		{
			"buffer":0,
			"byteLength":71724,
			"byteOffset":109792,
			"target":34962
		},
		{
			"buffer":0,
			"byteLength":71724,
			"byteOffset":181516,
			"target":34962
		},
		{
			"buffer":0,
			"byteLength":47816,
			"byteOffset":253240,
			"target":34962
		},
		{
			"buffer":0,
			"byteLength":69888,
			"byteOffset":301056,
			"target":34963
		},
		{
			"buffer":0,
			"byteLength":7104,
			"byteOffset":370944,
			"target":34962
		},
		{
			"buffer":0,
			"byteLength":7104,
			"byteOffset":378048,
			"target":34962
		},
		{
			"buffer":0,
			"byteLength":4736,
			"byteOffset":385152,
			"target":34962
		},
		{
			"buffer":0,
			"byteLength":3840,
			"byteOffset":389888,
			"target":34963
		},
		{
			"buffer":0,
			"byteLength":192,
			"byteOffset":393728,
			"target":34962
		},
		{
			"buffer":0,
			"byteLength":192,
			"byteOffset":393920,
			"target":34962
		},
		{
			"buffer":0,
			"byteLength":128,
			"byteOffset":394112,
			"target":34962
		},
		{
			"buffer":0,
			"byteLength":84,
			"byteOffset":394240,
			"target":34963
		},
		{
			"buffer":0,
			"byteLength":384,
			"byteOffset":394324,
			"target":34962
		},
		{
			"buffer":0,
			"byteLength":384,
			"byteOffset":394708,
			"target":34962
		},
		{
			"buffer":0,
			"byteLength":256,
			"byteOffset":395092,
			"target":34962
		},
		{
			"buffer":0,
			"byteLength":168,
			"byteOffset":395348,
			"target":34963
		},
		{
			"buffer":0,
			"byteLength":192,
			"byteOffset":395516,
			"target":34962
		},
		{
			"buffer":0,
			"byteLength":192,
			"byteOffset":395708,
			"target":34962
		},
		{
			"buffer":0,
			"byteLength":128,
			"byteOffset":395900,
			"target":34962
		},
		{
			"buffer":0,
			"byteLength":384,
			"byteOffset":396028,
			"target":34962
		},
		{
			"buffer":0,
			"byteLength":384,
			"byteOffset":396412,
			"target":34962
		},
		{
			"buffer":0,
			"byteLength":256,
			"byteOffset":396796,
			"target":34962
		},
		{
			"buffer":0,
			"byteLength":1992,
			"byteOffset":397052,
			"target":34962
		},
		{
			"buffer":0,
			"byteLength":1992,
			"byteOffset":399044,
			"target":34962
		},
		{
			"buffer":0,
			"byteLength":1328,
			"byteOffset":401036,
			"target":34962
		},
		{
			"buffer":0,
			"byteLength":1920,
			"byteOffset":402364,
			"target":34963
		},
		{
			"buffer":0,
			"byteLength":33816,
			"byteOffset":404284,
			"target":34962
		},
		{
			"buffer":0,
			"byteLength":33816,
			"byteOffset":438100,
			"target":34962
		},
		{
			"buffer":0,
			"byteLength":22544,
			"byteOffset":471916,
			"target":34962
		},
		{
			"buffer":0,
			"byteLength":33792,
			"byteOffset":494460,
			"target":34963
		},
		{
			"buffer":0,
			"byteLength":1152,
			"byteOffset":528252,
			"target":34962
		},
		{
			"buffer":0,
			"byteLength":1152,
			"byteOffset":529404,
			"target":34962
		},
		{
			"buffer":0,
			"byteLength":768,
			"byteOffset":530556,
			"target":34962
		},
		{
			"buffer":0,
			"byteLength":360,
			"byteOffset":531324,
			"target":34963
		},
		{
			"buffer":0,
			"byteLength":96,
			"byteOffset":531684,
			"target":34962
		},
		{
			"buffer":0,
			"byteLength":96,
			"byteOffset":531780,
			"target":34962
		},
		{
			"buffer":0,
			"byteLength":64,
			"byteOffset":531876,
			"target":34962
		},
		{
			"buffer":0,
			"byteLength":36,
			"byteOffset":531940,
			"target":34963
		},
		{
			"buffer":0,
			"byteLength":5400,
			"byteOffset":531976,
			"target":34962
		},
		{
			"buffer":0,
			"byteLength":5400,
			"byteOffset":537376,
			"target":34962
		},
		{
			"buffer":0,
			"byteLength":3600,
			"byteOffset":542776,
			"target":34962
		},
		{
			"buffer":0,
			"byteLength":1332,
			"byteOffset":546376,
			"target":34963
		},
		{
			"buffer":0,
			"byteLength":19512,
			"byteOffset":547708,
			"target":34962
		},
		{
			"buffer":0,
			"byteLength":19512,
			"byteOffset":567220,
			"target":34962
		},
		{
			"buffer":0,
			"byteLength":13008,
			"byteOffset":586732,
			"target":34962
		},
		{
			"buffer":0,
			"byteLength":8508,
			"byteOffset":599740,
			"target":34963
		}
	],
	"buffers":[
		{
			"byteLength":608248,
			"uri":"scene.bin"
		}
	]
}
